<svg width="40" height="40" viewBox="0 0 40 40" fill="none" xmlns="http://www.w3.org/2000/svg">
<path d="M2.44 10.44C5.82 4.22 12.42 0 20 0C27.58 0 34.18 4.22 37.56 10.44L36 12H4L2.44 10.44ZM38.8 13.2C39.56 15.34 40 17.62 40 20C40 25.3043 37.8929 30.3914 34.1421 34.1421C30.3914 37.8929 25.3043 40 20 40C17.3736 40 14.7728 39.4827 12.3463 38.4776C9.91982 37.4725 7.71504 35.9993 5.85786 34.1421C2.10714 30.3914 0 25.3043 0 20C0 17.62 0.44 15.34 1.2 13.2L4 16H6C6 18.76 10.24 21 13 21C15.76 21 18.5 18.76 18.5 16H21.5C21.5 18.76 24.24 21 27 21C29.76 21 34 18.76 34 16H36L38.8 13.2ZM28.38 26.84L25.54 24C24.64 25.44 22.5 26.46 20 26.46C17.5 26.46 15.36 25.44 14.46 24L11.62 26.84C13.42 29 16.5 30.46 20 30.46C23.5 30.46 26.58 29 28.38 26.84Z" fill="white"/>
</svg>
